<svg width="847" height="452" viewBox="0 0 847 452" fill="none" xmlns="http://www.w3.org/2000/svg"><path d="M0 3a3 3 0 013-3h841a3 3 0 013 3v446a3 3 0 01-3 3H3a3 3 0 01-3-3V3z" fill="#EDF3FF"/><path d="M549.119 184.064a10.788 10.788 0 0010.779-10.788c0-5.947-4.831-25.328-10.779-25.328-5.947 0-10.787 19.381-10.787 25.328a10.787 10.787 0 0010.787 10.788z" fill="url(#paint0_linear)"/><path d="M271.95 130.819l1.135 2.28a.52.52 0 00.431.3l2.514.375a.564.564 0 01.3.938l-1.801 1.773a.527.527 0 00-.168.507l.431 2.504a.583.583 0 01-.835.61l-2.242-1.172a.496.496 0 00-.535 0l-2.241 1.21a.583.583 0 01-.845-.61l.441-2.505a.618.618 0 00-.169-.506l-1.81-1.773a.56.56 0 01.035-.806.554.554 0 01.265-.132l2.514-.376a.563.563 0 00.432-.3l1.144-2.279a.58.58 0 01.491-.317.57.57 0 01.513.279z" fill="url(#paint1_radial)"/><path d="M285.233 130.819l1.144 2.28a.522.522 0 00.432.3l2.514.366a.569.569 0 01.432.676.577.577 0 01-.132.262l-1.811 1.81a.582.582 0 00-.168.507l.44 2.504a.578.578 0 01-.231.56.581.581 0 01-.603.05l-2.252-1.172a.495.495 0 00-.535 0l-2.279 1.182a.589.589 0 01-.603-.051.584.584 0 01-.232-.559l.432-2.505a.554.554 0 00-.021-.274.554.554 0 00-.148-.232l-1.801-1.773a.584.584 0 01-.133-.262.577.577 0 01.433-.676l2.514-.366a.574.574 0 00.431-.3l1.135-2.28a.58.58 0 01.2-.254.58.58 0 01.62-.028.577.577 0 01.222.235z" fill="url(#paint2_radial)"/><path d="M298.534 130.819l1.135 2.28a.522.522 0 00.432.3l2.514.366a.577.577 0 01.418.383.572.572 0 01-.118.555l-1.81 1.773a.546.546 0 00-.16.506l.432 2.505a.585.585 0 01-.526.669.587.587 0 01-.309-.059l-2.242-1.173a.498.498 0 00-.535 0l-2.251 1.173a.589.589 0 01-.603-.051.576.576 0 01-.232-.559l.441-2.505a.612.612 0 00-.169-.506l-1.81-1.773a.57.57 0 01.3-.938l2.514-.366a.557.557 0 00.431-.3l1.145-2.28a.568.568 0 01.502-.297.574.574 0 01.501.297z" fill="url(#paint3_radial)"/><path d="M311.817 130.819l1.145 2.28a.512.512 0 00.431.3l2.514.366a.572.572 0 01.3.938l-1.81 1.773a.568.568 0 00-.169.506l.441 2.505a.595.595 0 01-.24.557.6.6 0 01-.604.053l-2.242-1.173a.498.498 0 00-.535 0l-2.242 1.22a.587.587 0 01-.603-.051.585.585 0 01-.232-.559l.432-2.505a.554.554 0 00-.021-.274.554.554 0 00-.148-.232l-1.801-1.773a.572.572 0 01.3-.938l2.514-.366a.574.574 0 00.431-.3l1.136-2.28a.571.571 0 011.003-.047z" fill="url(#paint4_radial)"/><path d="M325.119 130.819l1.135 2.28a.522.522 0 00.432.3l2.514.366a.569.569 0 01.432.676.577.577 0 01-.132.262l-1.811 1.773a.553.553 0 00-.159.506l.431 2.505a.575.575 0 01-.231.559.581.581 0 01-.603.051l-2.242-1.173a.514.514 0 00-.545 0l-2.242 1.22a.585.585 0 01-.797-.298.575.575 0 01-.037-.312l.431-2.505a.583.583 0 00-.159-.506l-1.83-1.783a.574.574 0 01.301-.938l2.514-.366a.565.565 0 00.431-.3l1.145-2.279a.57.57 0 01.803-.26.57.57 0 01.219.222z" fill="url(#paint5_radial)"/><path d="M282.512 224.494l1.736 3.471a.796.796 0 00.656.45l3.828.563a.863.863 0 01.459 1.482l-2.758 2.702a.865.865 0 00-.253.76l.666 3.827a.931.931 0 01-.38.82.945.945 0 01-.896.118l-3.386-1.81a.791.791 0 00-.816 0l-3.443 1.763a.88.88 0 01-1.276-.938l.666-3.827a.868.868 0 00-.253-.76l-2.758-2.702a.855.855 0 01-.233-.884.861.861 0 01.693-.598l3.827-.563a.865.865 0 00.657-.45l1.735-3.471a.868.868 0 01.779-.439.86.86 0 01.75.486z" fill="url(#paint6_radial)"/><path d="M302.746 224.494l1.736 3.471a.804.804 0 00.666.45l3.818.563c.16.025.309.094.432.199a.87.87 0 01.271.874.855.855 0 01-.244.409l-2.748 2.702a.842.842 0 00-.263.76l.666 3.827a.931.931 0 01-.38.82.945.945 0 01-.896.118l-3.414-1.792a.805.805 0 00-.816 0l-3.443 1.745a.88.88 0 01-1.276-.938l.666-3.827a.86.86 0 00-.253-.76l-2.749-2.702a.862.862 0 01.451-1.482l3.827-.563a.944.944 0 00.666-.45l1.726-3.471a.868.868 0 01.793-.467.857.857 0 01.764.514z" fill="url(#paint7_radial)"/><path d="M323.037 224.494l1.735 3.471a.79.79 0 00.657.45l3.827.563a.868.868 0 01.693.598.853.853 0 01.01.475.853.853 0 01-.243.409l-2.758 2.702a.83.83 0 00-.254.76l.666 3.827a.931.931 0 01-.38.82.946.946 0 01-.895.118l-3.415-1.792a.8.8 0 00-.816 0l-3.415 1.745a.879.879 0 01-1.227-.455.876.876 0 01-.048-.483l.656-3.752a.886.886 0 00-.262-.76l-2.749-2.702a.865.865 0 01-.233-.884.861.861 0 01.693-.598l3.818-.563a.874.874 0 00.666-.45l1.735-3.471a.871.871 0 01.761-.486.86.86 0 01.453.12c.138.08.25.198.325.338z" fill="url(#paint8_radial)"/><path d="M560.432 83.86l-64.651 14.587a2.343 2.343 0 01-2.345-2.346 2.344 2.344 0 012.345-2.345l64.651-14.54a2.319 2.319 0 011.639 3.956 2.319 2.319 0 01-1.639.678v.01z" fill="url(#paint9_linear)"/><path d="M540.658 113.878L426.749 71.665a8.564 8.564 0 00-6.36 0l-113.815 42.213a9.18 9.18 0 00-6.023 8.686v113.009c0 112.061 119.472 144.94 120.738 145.287a8.303 8.303 0 002.317.347 7.646 7.646 0 002.317-.347c1.295-.347 120.795-33.226 120.795-145.287V122.405a8.982 8.982 0 00-6.06-8.527z" fill="url(#paint10_linear)"/><path d="M423.625 368.234c-5.206-1.501-30.909-9.953-56.284-28.818-35.89-26.856-54.182-61.818-54.182-103.843V124.947l110.466-40.975 110.316 40.862V235.46c0 42.025-18.17 76.978-54.173 103.834a192.386 192.386 0 01-56.143 28.94z" fill="url(#paint11_linear)"/><path d="M423.625 84.666l109.754 40.628V235.46c0 41.791-18.18 76.518-53.827 103.262a191.42 191.42 0 01-55.918 28.705 196.268 196.268 0 01-55.908-28.705C331.958 311.978 313.9 277.251 313.9 235.46V125.294l109.725-40.627zm0-.694l-110.316 40.862V235.46c0 42.025 18.17 76.978 54.173 103.834 25.328 18.987 51.049 27.326 56.284 28.827 5.206-1.501 30.9-9.953 56.284-28.827 35.89-26.856 54.173-61.809 54.173-103.834V124.834L423.625 83.972z" fill="#fff"/><path d="M576.436 67.219L427.8 26.788a11.427 11.427 0 00-8.34 0l-148.533 40.43a12.036 12.036 0 00-7.88 11.351v157.595c0 146.206 155.935 189.038 157.595 189.489.988.224 1.998.341 3.011.347a12.39 12.39 0 003.002-.347c1.623-.46 157.595-43.292 157.595-189.489V78.569a12.103 12.103 0 00-7.814-11.35z" fill="url(#paint12_linear)"/><path d="M576.436 67.219L427.8 26.788a11.427 11.427 0 00-8.34 0l-148.533 40.43a12.036 12.036 0 00-7.88 11.351v157.595c0 146.206 155.935 189.038 157.595 189.489.988.224 1.998.341 3.011.347a12.39 12.39 0 003.002-.347c1.623-.46 157.595-43.292 157.595-189.489V78.569a12.103 12.103 0 00-7.814-11.35z" fill="url(#paint13_linear)"/><path d="M576.436 67.219L427.8 26.788a11.427 11.427 0 00-8.34 0l-148.533 40.43a12.036 12.036 0 00-7.88 11.351v157.595c0 146.206 155.935 189.038 157.595 189.489.988.224 1.998.341 3.011.347a12.39 12.39 0 003.002-.347c1.623-.46 157.595-43.292 157.595-189.489V78.569a12.103 12.103 0 00-7.814-11.35z" fill="url(#paint14_radial)"/><path d="M576.436 67.219L427.8 26.788a11.427 11.427 0 00-8.34 0l-148.533 40.43a12.036 12.036 0 00-7.88 11.351v157.595c0 146.206 155.935 189.038 157.595 189.489.988.224 1.998.341 3.011.347a12.39 12.39 0 003.002-.347c1.623-.46 157.595-43.292 157.595-189.489V78.569a12.103 12.103 0 00-7.814-11.35z" fill="url(#paint15_radial)"/><path d="M423.635 409.218a255.318 255.318 0 01-73.395-37.626c-46.903-35.074-70.617-80.673-70.617-135.438V81.693l144.012-38.817L567.637 81.58v154.462c0 54.755-23.733 100.373-70.618 135.437-32.991 24.756-66.555 35.769-73.384 37.739z" fill="url(#paint16_linear)"/><path d="M423.635 409.218a255.318 255.318 0 01-73.395-37.626c-46.903-35.074-70.617-80.673-70.617-135.438V81.693l144.012-38.817L567.637 81.58v154.462c0 54.755-23.733 100.373-70.618 135.437-32.991 24.756-66.555 35.769-73.384 37.739z" fill="url(#paint17_linear)"/><path d="M423.635 49.151l138.214 36.585v150.418c0 52.907-22.917 96.893-68.301 130.813a247.099 247.099 0 01-69.913 36.228 247.264 247.264 0 01-69.924-36.228c-45.261-33.92-68.3-77.906-68.3-130.813V85.736L423.635 49.15zm0-6.135L279.623 81.694v154.461c0 54.755 23.733 100.373 70.617 135.438 32.992 24.662 66.678 35.646 73.395 37.626A255.432 255.432 0 00497 371.592c46.904-35.074 70.618-80.673 70.618-135.438V81.693L423.635 43.017z" fill="#4687FF"/><path opacity=".6" d="M438.371 47.275l135.326 31.707-4.794 144.518-.413-141.038-130.119-35.187z" fill="url(#paint18_radial)"/><path opacity=".6" d="M279.088 82.462l-.412 141.029-4.794-144.462 135.316-31.754-130.11 35.187z" fill="url(#paint19_radial)"/><path opacity=".6" d="M424.319 410.634l-.778-2.814c.103 0 9.605-1.004 25.327-8.199a304.425 304.425 0 0060.327-36.434l1.801 2.326a318.67 318.67 0 01-61.555 37.523c-15.938 7.27-24.672 7.486-25.122 7.598z" fill="url(#paint20_radial)"/><path d="M286.799 326.124c43.676 74.736 132.68 99.191 133.899 99.529.989.224 1.998.34 3.011.347 1.015.007 2.026-.11 3.012-.347 1.238-.348 91.93-25.272 135.146-101.705 4.006-7.083-279.28-5.028-275.068 2.176z" fill="url(#paint21_linear)"/><path d="M383.851 236.877c-15.712 0-29.239-8.837-31.753-24.99l16.885-4.147c1.745 7.974 7.092 12.88 15.6 12.88 7.504 0 12.767-4.587 12.767-9.821 0-6.22-3.49-9.925-12.767-9.925h-9.381v-16.482h8.443c8.067 0 12.195-4.69 12.195-9.812 0-5.46-4.034-9.493-12.195-9.493-5.628 0-11.463 2.504-13.968 10.318l-16.697-4.146c3.93-16.482 18.226-22.373 31.312-22.373 17.458 0 29.352 9.606 29.352 24.662 0 8.837-4.906 14.512-11.669 18.114 9.596 4.034 13.311 10.253 13.311 19.418-.01 14.23-13.321 25.797-31.435 25.797zm79.098-87.831c24.333 0 36.443 20.947 36.443 43.535 0 22.589-12.11 44.296-36.772 44.296-24.98 0-36.434-21.388-36.434-43.864 0-22.476 11.782-43.967 36.763-43.967zm-.216 70.833c13.527 0 18.761-15.713 18.761-27.063 0-11.351-5.244-26.838-18.761-26.838-13.518 0-18.761 15.6-18.761 26.838 0 11.238 5.234 27.063 18.761 27.063z" fill="#77A7FF"/><path d="M383.851 236.145c-15.712 0-29.239-8.846-31.753-24.99l16.885-4.146c1.745 7.964 7.092 12.879 15.6 12.879 7.504 0 12.767-4.587 12.767-9.821 0-6.22-3.49-9.934-12.767-9.934h-9.381V183.66h8.443c8.067 0 12.195-4.69 12.195-9.821 0-5.45-4.034-9.493-12.195-9.493-5.628 0-11.463 2.514-13.968 10.318l-16.697-4.146c3.93-16.472 18.226-22.363 31.312-22.363 17.458 0 29.352 9.596 29.352 24.661 0 8.837-4.906 14.503-11.669 18.105 9.596 4.043 13.311 10.262 13.311 19.427-.01 14.221-13.321 25.797-31.435 25.797z" fill="url(#paint22_linear)"/><path d="M462.949 148.305c24.333 0 36.443 20.956 36.443 43.535 0 22.579-12.11 44.305-36.772 44.305-24.98 0-36.434-21.388-36.434-43.864 0-22.476 11.782-43.976 36.763-43.976zm-.216 70.814c13.527 0 18.761-15.712 18.761-27.054 0-11.341-5.244-26.847-18.761-26.847-13.518 0-18.761 15.609-18.761 26.847 0 11.238 5.234 27.054 18.761 27.054z" fill="url(#paint23_linear)"/><path d="M384.977 287.157h-8.621v-28.47h8.724c9.934 0 16.078 5.234 16.078 14.183 0 8.471-6.106 14.287-16.181 14.287zm.253-22.908h-2.983v17.345h2.908c5.891 0 9.962-3.124 9.962-8.724s-4.287-8.621-9.887-8.621z" fill="url(#paint24_linear)"/><path d="M410.248 281.05l-2.251 6.107h-6.032l10.872-28.47h7.092l10.91 28.47h-6.07l-2.288-6.107h-12.233zm10.225-5.459l-4.146-11.201-4.146 11.201h8.292z" fill="url(#paint25_linear)"/><path d="M438.841 287.157V275.9L428.4 258.705h6.801l6.566 11.379 6.651-11.379h6.726l-10.431 16.942v11.529l-5.872-.019z" fill="url(#paint26_linear)"/><path d="M455.726 278.761l5.487-1.313c.479 3.124 2.983 4.84 6.107 4.84 2.73 0 4.296-1.454 4.296-3.208 0-1.416-1.275-2.58-3.236-2.974l-4.034-.806c-4.624-.938-7.607-3.856-7.607-8.18 0-5.094 4.624-8.874 10.075-8.874 6.566 0 9.784 3.93 10.318 7.561l-5.347 1.604a4.686 4.686 0 00-4.981-3.893c-2.429 0-4.146 1.491-4.146 3.17 0 1.342.872 2.542 2.945 2.946l3.968.722c5.272.938 8.04 4.325 8.04 8.368 0 4.399-3.753 8.874-10.441 8.874-6.688 0-10.506-3.462-11.444-8.837z" fill="url(#paint27_linear)"/><path d="M334.903 100.22l-6.463 15.074h-3.143l-6.425-14.952v14.952h-4.625V92.509h6.079l6.566 15.365 6.463-15.365h6.257v22.785h-4.69l-.019-15.074z" fill="url(#paint28_linear)"/><path d="M355.353 92.162a11.598 11.598 0 0110.87 7.152c.59 1.423.89 2.949.884 4.489a11.793 11.793 0 01-3.47 8.395 11.792 11.792 0 01-8.406 3.443 11.67 11.67 0 01-10.9-7.216c-.59-1.43-.89-2.963-.882-4.509a11.796 11.796 0 013.512-8.348 11.81 11.81 0 018.392-3.406zm-.056 18.902a7.183 7.183 0 006.748-4.309 7.18 7.18 0 00-5.111-9.89 7.176 7.176 0 00-8.645 7.013 7.088 7.088 0 002.014 5.046 7.096 7.096 0 004.994 2.14z" fill="url(#paint29_linear)"/><path d="M375.662 99.582v15.712h-4.69V92.509h5.384l9.953 14.868V92.509h4.69v22.785h-4.803l-10.534-15.712z" fill="url(#paint30_linear)"/><path d="M396.262 92.509h14.934v4.427h-10.272v4.625h9.193v4.428h-9.193v4.915h10.319v4.39h-15.009l.028-22.785z" fill="url(#paint31_linear)"/><path d="M421.665 115.294v-9.015l-8.349-13.77h5.441l5.262 9.108 5.328-9.108h5.385l-8.349 13.564v9.221h-4.718z" fill="url(#paint32_linear)"/><path d="M435.304 106.017v-4.512h9.606v4.512h-9.606z" fill="url(#paint33_linear)"/><path d="M459.112 115.294h-9.606V92.509h9.456c3.668 0 7.279 1.95 7.279 6.022a5.258 5.258 0 01-3.198 4.859v.066c2.701 1.013 4.183 2.533 4.183 5.553 0 4.625-4.099 6.285-8.114 6.285zm-.788-18.451h-4.221v4.924h3.902c1.661 0 3.612-.44 3.612-2.504 0-1.895-1.717-2.42-3.293-2.42zm.582 8.996h-4.803v5.093h4.953c1.679 0 3.574-.497 3.574-2.532 0-2.036-1.98-2.561-3.724-2.561z" fill="url(#paint34_linear)"/><path d="M474.825 110.407l-1.811 4.887h-4.831l8.705-22.785h5.676l8.724 22.785h-4.859l-1.877-4.887h-9.727zm8.17-4.362l-3.311-8.968-3.321 8.968h6.632z" fill="url(#paint35_linear)"/><path d="M491.897 103.916a11.753 11.753 0 013.473-8.348 11.744 11.744 0 018.375-3.406c6.398 0 9.803 4.277 10.591 7.363l-4.484 1.567a6.238 6.238 0 00-6.163-4.334 7.145 7.145 0 00-6.889 7.144 7.15 7.15 0 006.889 7.143 6.4 6.4 0 006.285-4.54l4.503 1.547c-.667 2.815-4.072 7.561-10.854 7.561a11.499 11.499 0 01-11.726-11.697z" fill="url(#paint36_linear)"/><path d="M522.534 115.294h-4.69V92.509h4.69v9.924l7.833-9.924h5.873l-8.696 10.881 9.277 11.904h-6.05l-8.237-10.797v10.797z" fill="url(#paint37_linear)"/><path d="M383.851 231.051c-15.712 0-29.239-8.836-31.753-24.99l16.885-4.146c1.745 7.964 7.092 12.88 15.609 12.88 7.505 0 12.758-4.587 12.758-9.822 0-6.219-3.49-9.934-12.758-9.934h-9.38v-16.435h8.442c8.077 0 12.195-4.69 12.195-9.821 0-5.46-4.043-9.493-12.195-9.493-5.628 0-11.453 2.514-13.967 10.318l-16.717-4.137c3.931-16.472 18.227-22.363 31.322-22.363 17.458 0 29.352 9.596 29.352 24.652 0 8.846-4.915 14.512-11.679 18.114 9.606 4.043 13.311 10.263 13.311 19.428 0 14.183-13.311 25.749-31.425 25.749zm79.107-87.84c24.324 0 36.444 20.956 36.444 43.536 0 22.579-12.12 44.304-36.772 44.304-24.99 0-36.444-21.388-36.444-43.864 0-22.476 11.782-43.976 36.772-43.976zm-.225 70.814c13.536 0 18.761-15.712 18.761-27.053 0-11.341-5.234-26.848-18.761-26.848s-18.761 15.61-18.761 26.848 5.234 27.053 18.761 27.053zM334.903 98.043l-6.454 15.075h-3.142l-6.435-15.01v15.01h-4.625V90.332h6.079l6.566 15.366 6.416-15.366h6.257v22.786h-4.69l.028-15.075zm20.45-8.067a11.584 11.584 0 0111.754 11.641 11.803 11.803 0 01-3.469 8.399 11.802 11.802 0 01-8.407 3.449 11.669 11.669 0 01-11.782-11.726 11.821 11.821 0 0111.904-11.763zm-.066 18.921a7.178 7.178 0 001.668-14.194 7.176 7.176 0 00-8.666 6.98 7.102 7.102 0 007.008 7.214h-.01zm20.375-11.501v15.722h-4.69V90.332h5.384l9.953 14.869V90.332h4.69v22.786h-4.803l-10.534-15.722zm20.6-7.064h14.934v4.419h-10.272v4.624h9.193v4.428h-9.193v4.915h10.319v4.4h-15.009l.028-22.786zm25.403 22.786v-9.024l-8.349-13.762h5.441l5.262 9.109 5.328-9.109h5.385l-8.358 13.555v9.231h-4.709zm13.639-9.287v-4.512h9.606v4.512h-9.606zm23.808 9.287h-9.606V90.332h9.456c3.668 0 7.279 1.952 7.279 6.023a5.258 5.258 0 01-3.198 4.859v.056c2.701 1.023 4.183 2.533 4.183 5.563 0 4.625-4.099 6.285-8.114 6.285zm-.788-18.452h-4.221v4.916h3.902c1.661 0 3.612-.432 3.612-2.505 0-1.885-1.717-2.41-3.293-2.41zm.582 8.987h-4.803v5.094h4.953c1.679 0 3.574-.488 3.574-2.533s-1.98-2.561-3.724-2.561zm15.919 4.596l-1.811 4.897h-4.831l8.705-22.785h5.676l8.724 22.785h-4.859l-1.877-4.897h-9.727zm8.17-4.362l-3.311-8.958-3.321 8.93 6.632.028zm8.902-2.148a11.759 11.759 0 017.319-10.895 11.757 11.757 0 014.529-.868c6.398 0 9.803 4.278 10.591 7.364l-4.484 1.576a6.242 6.242 0 00-6.173-4.334 7.149 7.149 0 000 14.287 6.408 6.408 0 006.295-4.541l4.503 1.539c-.667 2.814-4.072 7.57-10.854 7.57a11.5 11.5 0 01-11.726-11.698zm30.637 11.379h-4.69V90.332h4.69v9.916l7.833-9.916h5.873l-8.696 10.882 9.277 11.904h-6.05l-8.208-10.825-.029 10.825zM384.977 284.971h-8.621v-28.507h8.733c9.925 0 16.069 5.234 16.069 14.183 0 8.508-6.106 14.324-16.181 14.324zm.253-22.907h-2.983v17.345h2.908c5.901 0 9.972-3.124 9.972-8.724 0-5.601-4.297-8.593-9.897-8.593v-.028zm25.028 16.8l-2.261 6.107h-6.032l10.872-28.507h7.092l10.91 28.47h-6.07l-2.298-6.107-12.213.037zm10.215-5.459l-4.146-11.201-4.146 11.201h8.292zm18.367 11.566v-11.256l-10.478-17.251h6.801l6.567 11.378 6.679-11.378h6.726l-10.441 16.978v11.529h-5.854zm16.886-8.395l5.487-1.314c.479 3.133 2.983 4.841 6.116 4.841 2.721 0 4.287-1.454 4.287-3.199 0-1.426-1.266-2.589-3.236-2.983l-4.034-.807c-4.624-.938-7.607-3.855-7.607-8.18 0-5.094 4.624-8.874 10.075-8.874 6.566 0 9.784 3.931 10.318 7.561l-5.347 1.604a4.686 4.686 0 00-4.981-3.893c-2.439 0-4.146 1.491-4.146 3.171 0 1.341.872 2.542 2.945 2.945l3.959.722c5.272.939 8.039 4.334 8.039 8.368 0 4.399-3.752 8.874-10.44 8.874-6.689 0-10.497-3.452-11.435-8.836z" fill="#fff"/><path d="M263.113 390.719h-51.387l12.861-29.399-12.861-29.399h64.473v45.703a13.13 13.13 0 01-13.086 13.095zm308.548-13.095v-45.703h64.473l-12.861 29.399 12.861 29.399h-51.387a13.13 13.13 0 01-13.086-13.095z" fill="#D0D1D3"/><path d="M572.524 375.907v-45.712h64.473l-12.861 29.399 12.861 29.399H585.61a13.135 13.135 0 01-13.086-13.086z" fill="url(#paint38_linear)"/><path d="M261.387 388.13H210l12.861-29.418L210 329.313h64.473v45.712a13.133 13.133 0 01-13.086 13.105z" fill="url(#paint39_linear)"/><path d="M609.784 332.728l-.657 47.344s-33.517-6.895-182.209-6.032c-67.419.385-111.63 1.586-140.119 2.814-36.791 1.586-47.203 3.218-47.203 3.218l-.694-49.502a14.923 14.923 0 0112.748-15.009c20.637-3.067 70.073-7.917 176.15-7.917 97.23 0 145.465 4.512 167.031 7.58a17.384 17.384 0 0114.953 17.504z" fill="url(#paint40_linear)"/><path d="M275.571 92.94c7.854 0 14.221-6.367 14.221-14.22 0-7.855-6.367-14.222-14.221-14.222S261.35 70.865 261.35 78.72s6.367 14.221 14.221 14.221z" fill="url(#paint41_radial)"/><path d="M573.696 94.122c8.207 0 14.859-6.652 14.859-14.859 0-8.206-6.652-14.859-14.859-14.859-8.206 0-14.859 6.653-14.859 14.86 0 8.206 6.653 14.858 14.859 14.858z" fill="url(#paint42_radial)"/><path opacity=".6" d="M576.267 66.656L427.8 26.788a13.134 13.134 0 00-8.931 0L302.212 58.682a196.61 196.61 0 00-.938 20.431c0 120.354 54.707 244.234 175.061 244.234 15.844 0 74.041-1.754 88.835-4.896 11.65-22.72 18.995-49.718 18.995-81.79V78.071a12.446 12.446 0 00-7.898-11.415z" fill="url(#paint43_linear)"/><path d="M609.784 328.413l-.657 47.344s-33.517-6.895-182.209-6.032c-154.574.891-187.322 6.032-187.322 6.032l-.694-49.492a14.926 14.926 0 0112.748-15.009c20.637-3.068 70.073-7.917 176.15-7.917 97.23 0 145.465 4.512 167.031 7.579a17.383 17.383 0 0114.953 17.495z" fill="url(#paint44_linear)"/><path d="M291.846 332.859l-4.503 2.561-1.96-3.574 7.26-4.249h3.612v21.36h-4.409v-16.098zm17.467-5.59c6.078 0 9.108 5.234 9.108 10.881s-3.03 11.079-9.193 11.079-9.108-5.347-9.108-10.966c0-5.619 2.945-10.994 9.193-10.994zm-.057 17.701c3.387 0 4.691-3.921 4.691-6.764 0-2.842-1.304-6.707-4.691-6.707-3.386 0-4.69 3.903-4.69 6.707 0 2.805 1.304 6.764 4.69 6.764zm21.013-17.701c6.079 0 9.109 5.234 9.109 10.881s-3.03 11.079-9.193 11.079-9.109-5.347-9.109-10.966c0-5.619 2.946-10.994 9.193-10.994zm-.056 17.701c3.386 0 4.69-3.921 4.69-6.764 0-2.842-1.304-6.707-4.69-6.707-3.387 0-4.691 3.903-4.691 6.707 0 2.805 1.304 6.764 4.691 6.764zm11.435-12.767a4.827 4.827 0 012.982-4.464 4.83 4.83 0 111.849 9.295 4.842 4.842 0 01-4.831-4.831zm2.345 16.754l13.921-21.36h3.677l-13.883 21.36h-3.715zm.797-16.754a1.686 1.686 0 001.043 1.56 1.686 1.686 0 002.302-1.231 1.686 1.686 0 00-2.847-1.52 1.696 1.696 0 00-.498 1.191zm9.55 12.063a4.83 4.83 0 119.66-.057 4.83 4.83 0 01-9.66.057zm3.133 0a1.702 1.702 0 001.05 1.57 1.701 1.701 0 002.214-2.226 1.694 1.694 0 00-1.576-1.042 1.681 1.681 0 00-1.197.498 1.683 1.683 0 00-.491 1.2zm36.697-5.131c0 6.66-4.906 10.15-10.122 10.15a10.742 10.742 0 01-7.903-3.112 10.725 10.725 0 01-3.166-7.882 11.033 11.033 0 0111.125-11.023c5.319 0 8.706 3.105 9.606 6.52l-4.315 1.313a5.316 5.316 0 00-5.347-3.63 6.809 6.809 0 00-4.651 11.531 6.809 6.809 0 004.651 2.08c2.899 0 5-1.501 5.516-3.602h-6.491v-4.005h11.097v1.66zm20.44 1.201c0 5.459-2.814 8.921-8.62 8.921-5.807 0-8.537-3.602-8.537-8.762v-12.898h4.447v12.795c0 3.161 1.876 4.606 4.146 4.606 2.73 0 4.23-1.801 4.23-4.503v-12.898h4.362l-.028 12.739zm7.946 4.033l-1.689 4.588h-4.54l8.161-21.36h5.319l8.18 21.36h-4.55l-1.726-4.588h-9.155zm7.664-4.09l-3.105-8.442-3.115 8.442h6.22zm21.941 8.678l-4.062-7.664h-3.217v7.664h-4.428v-21.36h8.443c4.146 0 7.56 2.232 7.56 6.763a6.15 6.15 0 01-4.015 6.107l4.531 8.49h-4.812zm-7.279-11.764h3.677c1.641 0 3.414-.731 3.414-2.748 0-2.017-1.773-2.674-3.442-2.674h-3.649v5.422zm19.23 7.176l-1.688 4.588h-4.531l8.161-21.36h5.319l8.189 21.36h-4.559l-1.717-4.588h-9.174zm7.673-4.09l-3.114-8.442-3.105 8.442h6.219zm14.597-6.059v14.737h-4.391v-21.36h5.047l9.278 13.939v-13.939h4.437v21.36h-4.503l-9.868-14.737zm23.826 14.737v-17.083h-6.416v-4.277h17.214v4.277h-6.407v17.083h-4.391zm13.865-21.36h13.996v4.146h-9.634v4.334h8.621v4.146h-8.621v4.615h9.681v4.119h-14.071l.028-21.36zm18.086 0h13.996v4.146h-9.634v4.334h8.639v4.146h-8.63v4.615h9.69v4.119h-14.071l.01-21.36z" fill="#77A7FF"/><defs><linearGradient id="paint0_linear" x1="549.119" y1="184.88" x2="549.119" y2="150.781" gradientUnits="userSpaceOnUse"><stop stop-color="#4687FF"/><stop offset="1" stop-color="#77A7FF"/></linearGradient><linearGradient id="paint29_linear" x1="8729.81" y1="3531.24" x2="8664.32" y2="1399.34" gradientUnits="userSpaceOnUse"><stop stop-color="#BDD4FF"/><stop offset=".4" stop-color="#87B1FF"/><stop offset=".8" stop-color="#5893FF"/><stop offset="1" stop-color="#4687FF"/></linearGradient><linearGradient id="paint43_linear" x1="199.409" y1="90.379" x2="527.009" y2="199.579" gradientUnits="userSpaceOnUse"><stop offset=".54" stop-color="#fff" stop-opacity=".5"/><stop offset="1" stop-color="#BDD4FF" stop-opacity="0"/></linearGradient><linearGradient id="paint40_linear" x1="238.902" y1="343.882" x2="609.793" y2="343.882" gradientUnits="userSpaceOnUse"><stop stop-color="#E8E8E9"/><stop offset="1" stop-color="#D0D1D3"/></linearGradient><linearGradient id="paint39_linear" x1="263.31" y1="343.675" x2="180.47" y2="391.929" gradientUnits="userSpaceOnUse"><stop stop-color="#D0D1D3"/><stop offset=".72" stop-color="#fff"/></linearGradient><linearGradient id="paint38_linear" x1="587.289" y1="346.405" x2="679.491" y2="401.15" gradientUnits="userSpaceOnUse"><stop stop-color="#D0D1D3"/><stop offset=".31" stop-color="#EDEDEE"/><stop offset=".56" stop-color="#fff"/></linearGradient><linearGradient id="paint37_linear" x1="10716.1" y1="3300.94" x2="10639.5" y2="1233.11" gradientUnits="userSpaceOnUse"><stop stop-color="#BDD4FF"/><stop offset=".4" stop-color="#87B1FF"/><stop offset=".8" stop-color="#5893FF"/><stop offset="1" stop-color="#4687FF"/></linearGradient><linearGradient id="paint36_linear" x1="12053.1" y1="3413.29" x2="11984.6" y2="1283.8" gradientUnits="userSpaceOnUse"><stop stop-color="#BDD4FF"/><stop offset=".4" stop-color="#87B1FF"/><stop offset=".8" stop-color="#5893FF"/><stop offset="1" stop-color="#4687FF"/></linearGradient><linearGradient id="paint35_linear" x1="11711.8" y1="3336.72" x2="11648.8" y2="1267.96" gradientUnits="userSpaceOnUse"><stop stop-color="#BDD4FF"/><stop offset=".4" stop-color="#87B1FF"/><stop offset=".8" stop-color="#5893FF"/><stop offset="1" stop-color="#4687FF"/></linearGradient><linearGradient id="paint9_linear" x1="528.107" y1="-122.373" x2="528.107" y2="91.139" gradientUnits="userSpaceOnUse"><stop offset=".18" stop-color="#E7EFFF"/><stop offset=".67" stop-color="#CFE0FF"/><stop offset="1" stop-color="#BDD4FF"/></linearGradient><linearGradient id="paint10_linear" x1="112420" y1="89839.1" x2="111306" y2="-9411.95" gradientUnits="userSpaceOnUse"><stop offset=".18" stop-color="#E7EFFF"/><stop offset=".67" stop-color="#CFE0FF"/><stop offset="1" stop-color="#BDD4FF"/></linearGradient><linearGradient id="paint11_linear" x1="421.833" y1="72.453" x2="425.858" y2="323.451" gradientUnits="userSpaceOnUse"><stop stop-color="#BDD4FF"/><stop offset=".23" stop-color="#B1CCFF"/><stop offset=".65" stop-color="#92B9FF"/><stop offset=".96" stop-color="#77A7FF"/></linearGradient><linearGradient id="paint12_linear" x1="421.833" y1="434.911" x2="423.1" y2="239.475" gradientUnits="userSpaceOnUse"><stop stop-color="#77A7FF"/><stop offset="1" stop-color="#BDD4FF"/></linearGradient><linearGradient id="paint13_linear" x1="423.634" y1="374.678" x2="423.634" y2="14.424" gradientUnits="userSpaceOnUse"><stop stop-color="#4687FF"/><stop offset=".24" stop-color="#77A7FF"/><stop offset=".67" stop-color="#4687FF"/><stop offset="1" stop-color="#F7F7F7"/></linearGradient><linearGradient id="paint34_linear" x1="8671.42" y1="3352.67" x2="8589.44" y2="1285.25" gradientUnits="userSpaceOnUse"><stop stop-color="#BDD4FF"/><stop offset=".4" stop-color="#87B1FF"/><stop offset=".8" stop-color="#5893FF"/><stop offset="1" stop-color="#4687FF"/></linearGradient><linearGradient id="paint33_linear" x1="4708.14" y1="749.757" x2="4702.18" y2="339.798" gradientUnits="userSpaceOnUse"><stop stop-color="#BDD4FF"/><stop offset=".4" stop-color="#87B1FF"/><stop offset=".8" stop-color="#5893FF"/><stop offset="1" stop-color="#4687FF"/></linearGradient><linearGradient id="paint16_linear" x1="429.835" y1="13.411" x2="406.759" y2="561.897" gradientUnits="userSpaceOnUse"><stop stop-color="#4687FF"/><stop offset=".24" stop-color="#77A7FF"/><stop offset=".67" stop-color="#77A7FF"/><stop offset="1" stop-color="#BDD4FF"/></linearGradient><linearGradient id="paint17_linear" x1="515.555" y1="269.043" x2="442.574" y2="214.307" gradientUnits="userSpaceOnUse"><stop stop-color="#4687FF"/><stop offset="1" stop-color="#4687FF" stop-opacity="0"/></linearGradient><linearGradient id="paint32_linear" x1="9580.64" y1="3377.96" x2="9512.52" y2="1309.52" gradientUnits="userSpaceOnUse"><stop stop-color="#BDD4FF"/><stop offset=".4" stop-color="#87B1FF"/><stop offset=".8" stop-color="#5893FF"/><stop offset="1" stop-color="#4687FF"/></linearGradient><linearGradient id="paint31_linear" x1="6490.94" y1="3393.45" x2="6393.86" y2="1327.33" gradientUnits="userSpaceOnUse"><stop stop-color="#BDD4FF"/><stop offset=".4" stop-color="#87B1FF"/><stop offset=".8" stop-color="#5893FF"/><stop offset="1" stop-color="#4687FF"/></linearGradient><linearGradient id="paint30_linear" x1="8018.33" y1="3410.54" x2="7945.51" y2="1342.2" gradientUnits="userSpaceOnUse"><stop stop-color="#BDD4FF"/><stop offset=".4" stop-color="#87B1FF"/><stop offset=".8" stop-color="#5893FF"/><stop offset="1" stop-color="#4687FF"/></linearGradient><linearGradient id="paint21_linear" x1="422.04" y1="360.785" x2="420.07" y2="391.695" gradientUnits="userSpaceOnUse"><stop stop-color="#305EB2" stop-opacity=".9"/><stop offset="1" stop-color="#4687FF" stop-opacity="0"/></linearGradient><linearGradient id="paint22_linear" x1="352.098" y1="192.169" x2="415.276" y2="192.169" gradientUnits="userSpaceOnUse"><stop offset=".54" stop-color="#BDD4FF"/><stop offset="1" stop-color="#4687FF"/></linearGradient><linearGradient id="paint23_linear" x1="31795.9" y1="16883.6" x2="37508.9" y2="16883.6" gradientUnits="userSpaceOnUse"><stop offset=".54" stop-color="#BDD4FF"/><stop offset="1" stop-color="#4687FF"/></linearGradient><linearGradient id="paint24_linear" x1="387.2" y1="255.582" x2="389.845" y2="296.547" gradientUnits="userSpaceOnUse"><stop stop-color="#BDD4FF"/><stop offset=".4" stop-color="#87B1FF"/><stop offset=".8" stop-color="#5893FF"/><stop offset="1" stop-color="#4687FF"/></linearGradient><linearGradient id="paint25_linear" x1="12407" y1="7552.76" x2="12486.2" y2="8795.91" gradientUnits="userSpaceOnUse"><stop stop-color="#BDD4FF"/><stop offset=".4" stop-color="#87B1FF"/><stop offset=".8" stop-color="#5893FF"/><stop offset="1" stop-color="#4687FF"/></linearGradient><linearGradient id="paint26_linear" x1="12319.9" y1="7499.53" x2="12405.7" y2="8742.13" gradientUnits="userSpaceOnUse"><stop stop-color="#BDD4FF"/><stop offset=".4" stop-color="#87B1FF"/><stop offset=".8" stop-color="#5893FF"/><stop offset="1" stop-color="#4687FF"/></linearGradient><linearGradient id="paint27_linear" x1="10739.3" y1="7675.5" x2="10849.9" y2="8952.77" gradientUnits="userSpaceOnUse"><stop stop-color="#BDD4FF"/><stop offset=".4" stop-color="#87B1FF"/><stop offset=".8" stop-color="#5893FF"/><stop offset="1" stop-color="#4687FF"/></linearGradient><linearGradient id="paint28_linear" x1="8538.17" y1="3451.1" x2="8480.64" y2="1381.79" gradientUnits="userSpaceOnUse"><stop stop-color="#BDD4FF"/><stop offset=".4" stop-color="#87B1FF"/><stop offset=".8" stop-color="#5893FF"/><stop offset="1" stop-color="#4687FF"/></linearGradient><linearGradient id="paint44_linear" x1="424.347" y1="290.975" x2="424.347" y2="347.343" gradientUnits="userSpaceOnUse"><stop stop-color="#D0D1D3"/><stop offset=".18" stop-color="#E4E4E5"/><stop offset=".4" stop-color="#F3F3F4"/><stop offset=".65" stop-color="#FCFCFC"/><stop offset="1" stop-color="#fff"/></linearGradient><radialGradient id="paint19_radial" cx="0" cy="0" r="1" gradientUnits="userSpaceOnUse" gradientTransform="matrix(-10703.5 0 0 -13938.6 -73710.1 -39943.5)"><stop offset=".54" stop-color="#fff"/><stop offset="1" stop-color="#BDD4FF"/></radialGradient><radialGradient id="paint20_radial" cx="0" cy="0" r="1" gradientUnits="userSpaceOnUse" gradientTransform="translate(467.245 386.911) scale(35.168)"><stop offset=".54" stop-color="#fff" stop-opacity=".8"/><stop offset="1" stop-color="#BDD4FF" stop-opacity="0"/></radialGradient><radialGradient id="paint18_radial" cx="0" cy="0" r="1" gradientUnits="userSpaceOnUse" gradientTransform="translate(507.826 113.09) scale(74.2008)"><stop offset=".54" stop-color="#fff"/><stop offset="1" stop-color="#BDD4FF"/></radialGradient><radialGradient id="paint15_radial" cx="0" cy="0" r="1" gradientUnits="userSpaceOnUse" gradientTransform="matrix(40455.4 0 0 50380 148305 179006)"><stop stop-color="#fff" stop-opacity=".7"/><stop offset="1" stop-color="#F7F7F7" stop-opacity="0"/></radialGradient><radialGradient id="paint14_radial" cx="0" cy="0" r="1" gradientUnits="userSpaceOnUse" gradientTransform="translate(267.466 65.727) scale(122.764)"><stop stop-color="#fff" stop-opacity=".7"/><stop offset="1" stop-color="#F7F7F7" stop-opacity="0"/></radialGradient><radialGradient id="paint8_radial" cx="0" cy="0" r="1" gradientUnits="userSpaceOnUse" gradientTransform="matrix(356.298 0 0 339.536 45967.2 -132204)"><stop offset=".67" stop-color="#FB0"/><stop offset="1" stop-color="#E96400"/></radialGradient><radialGradient id="paint7_radial" cx="0" cy="0" r="1" gradientUnits="userSpaceOnUse" gradientTransform="matrix(356.545 0 0 340.855 45536 -132736)"><stop offset=".67" stop-color="#FB0"/><stop offset="1" stop-color="#E96400"/></radialGradient><radialGradient id="paint1_radial" cx="0" cy="0" r="1" gradientUnits="userSpaceOnUse" gradientTransform="translate(270.46 130.961) scale(14.215)"><stop offset=".67" stop-color="#FB0"/><stop offset="1" stop-color="#E96400"/></radialGradient><radialGradient id="paint5_radial" cx="0" cy="0" r="1" gradientUnits="userSpaceOnUse" gradientTransform="matrix(152.787 0 0 146.734 20686.8 -54755.7)"><stop offset=".67" stop-color="#FB0"/><stop offset="1" stop-color="#E96400"/></radialGradient><radialGradient id="paint4_radial" cx="0" cy="0" r="1" gradientUnits="userSpaceOnUse" gradientTransform="matrix(152.503 0 0 146.399 20450.9 -54620.8)"><stop offset=".67" stop-color="#FB0"/><stop offset="1" stop-color="#E96400"/></radialGradient><radialGradient id="paint3_radial" cx="0" cy="0" r="1" gradientUnits="userSpaceOnUse" gradientTransform="matrix(152.503 0 0 146.024 20249 -54469.2)"><stop offset=".67" stop-color="#FB0"/><stop offset="1" stop-color="#E96400"/></radialGradient><radialGradient id="paint41_radial" cx="0" cy="0" r="1" gradientUnits="userSpaceOnUse" gradientTransform="translate(275.749 78.879) scale(13.2924)"><stop stop-color="#fff"/><stop offset=".09" stop-color="#fff" stop-opacity=".87"/><stop offset=".28" stop-color="#fff" stop-opacity=".61"/><stop offset=".46" stop-color="#fff" stop-opacity=".39"/><stop offset=".63" stop-color="#fff" stop-opacity=".22"/><stop offset=".78" stop-color="#fff" stop-opacity=".1"/><stop offset=".91" stop-color="#fff" stop-opacity=".03"/><stop offset="1" stop-color="#fff" stop-opacity="0"/></radialGradient><radialGradient id="paint42_radial" cx="0" cy="0" r="1" gradientUnits="userSpaceOnUse" gradientTransform="translate(17972 2152.68) scale(439.824)"><stop stop-color="#fff"/><stop offset=".09" stop-color="#fff" stop-opacity=".87"/><stop offset=".28" stop-color="#fff" stop-opacity=".61"/><stop offset=".46" stop-color="#fff" stop-opacity=".39"/><stop offset=".63" stop-color="#fff" stop-opacity=".22"/><stop offset=".78" stop-color="#fff" stop-opacity=".1"/><stop offset=".91" stop-color="#fff" stop-opacity=".03"/><stop offset="1" stop-color="#fff" stop-opacity="0"/></radialGradient><radialGradient id="paint2_radial" cx="0" cy="0" r="1" gradientUnits="userSpaceOnUse" gradientTransform="matrix(153.072 0 0 146.968 20115.1 -54849.8)"><stop offset=".67" stop-color="#FB0"/><stop offset="1" stop-color="#E96400"/></radialGradient><radialGradient id="paint6_radial" cx="0" cy="0" r="1" gradientUnits="userSpaceOnUse" gradientTransform="matrix(356.081 0 0 340.205 45021 -132474)"><stop offset=".67" stop-color="#FB0"/><stop offset="1" stop-color="#E96400"/></radialGradient></defs></svg>